<?xml version="1.0" standalone="no"?>
<!DOCTYPE svg PUBLIC "-//W3C//DTD SVG 20010904//EN"
 "http://www.w3.org/TR/2001/REC-SVG-20010904/DTD/svg10.dtd">
<svg version="1.0" xmlns="http://www.w3.org/2000/svg"
 width="1024.000000pt" height="1024.000000pt" viewBox="0 0 1024.000000 1024.000000"
 preserveAspectRatio="xMidYMid meet">

<g transform="translate(0.000000,1024.000000) scale(0.100000,-0.100000)"
fill="#000000" stroke="none">
<path d="M0 5120 l0 -5120 1173 2 1172 3 0 419 0 420 -30 4 c-16 2 -109 6
-205 8 -193 5 -290 21 -420 66 -405 143 -697 470 -803 898 -21 83 -21 106 -24
1193 -3 759 0 1120 7 1147 16 61 68 121 133 154 137 70 293 14 358 -128 18
-39 19 -91 19 -1056 0 -558 5 -1055 10 -1103 30 -291 217 -521 498 -615 72
-24 90 -26 267 -27 l190 0 0 3736 0 3737 -105 1 c-140 2 -285 -14 -362 -40
-232 -79 -397 -251 -470 -491 l-22 -73 -6 -1090 c-4 -819 -8 -1097 -17 -1117
-7 -15 -29 -46 -50 -69 -128 -142 -347 -108 -429 66 l-24 50 0 1086 c0 1191
-1 1168 60 1351 65 193 158 339 314 493 124 121 227 192 375 256 167 72 311
97 576 101 l160 3 0 427 0 428 -1172 0 -1173 0 0 -5120z m2335 4685 c0 -227
-2 -411 -5 -408 -3 2 -5 191 -5 418 0 227 2 411 5 408 3 -2 5 -191 5 -418z m0
-4690 c0 -2048 -2 -3721 -5 -3718 -3 2 -5 1680 -5 3728 0 2048 2 3721 5 3718
3 -2 5 -1680 5 -3728z m0 -4689 c0 -228 -2 -413 -5 -411 -4 3 -5 814 -1 823 0
1 2 2 4 2 1 0 2 -186 2 -414z"/>
</g>
</svg>
